<?xml version="1.0" encoding="UTF-8"?>
<!DOCTYPE svg PUBLIC "-//W3C//DTD SVG 1.1//EN" "http://www.w3.org/Graphics/SVG/1.1/DTD/svg11.dtd">
<!-- Creator: CorelDRAW 2019 (64-Bit) -->
<svg xmlns="http://www.w3.org/2000/svg" xml:space="preserve" width="5.34142in" height="3.91638in" version="1.1" style="shape-rendering:geometricPrecision; text-rendering:geometricPrecision; image-rendering:optimizeQuality; fill-rule:evenodd; clip-rule:evenodd"
viewBox="0 0 639.13 468.62"
 xmlns:xlink="http://www.w3.org/1999/xlink">
 <defs>
  <style type="text/css">
   <![CDATA[
    .str0 {stroke:#00FFEA;stroke-width:11.63;stroke-miterlimit:2.61313}
    .fil0 {fill:#1A1A1A}
   ]]>
  </style>
 </defs>
 <g id="Layer_x0020_1">
  <metadata id="CorelCorpID_0Corel-Layer"/>
  <path class="fil0 str0" d="M79.62 124.33l103.89 -0.05 -24.12 -40.09 278.83 -0.15c0.81,3.93 -2.1,7.01 -4.11,10.07l-11.67 18.65c-2.7,4.4 -4.57,5.11 -4.73,11.57 47.38,-0.32 95.05,0.34 142.45,-0.43 1.47,-6.61 -3.7,-4.72 -0.14,-19.64 4.32,-18.14 19.42,-40.77 30.77,-54.56 6.5,-7.9 15.98,-18.16 23.82,-24.81l12.76 -11.13c2.93,-2.24 5.4,-2.77 5.65,-7.88l-627.08 -0.07c0.13,6.06 4.32,9.91 8.28,16.4l28.07 43.71c5.97,9.8 33.92,51.7 37.33,58.4zm216.84 338.47l47.34 -0.07c4.58,-6.3 8.64,-13.35 12.59,-19.57l38.19 -59.98c8.36,-12.68 17.23,-26.43 25.1,-39.5 8.42,-13.98 17.23,-26.49 25.47,-39.91 16.3,-26.55 33.85,-52.43 50.65,-79.37l37.82 -59.52c2.8,-4.58 11.59,-16.05 11.95,-20.76l-266.38 -0.12c0.04,5.75 6.16,13.1 10.29,20.21l35.17 57.38 66.59 2.11c0.23,2.68 -54.54,92.97 -60.46,102.82l-20.93 0.1 -28.17 -45.3c-16.19,-27.86 -39.41,-62.8 -56.8,-91.59 -7.28,-12.05 -22.79,-35.32 -28.2,-45.83l-103.63 0.07c1.5,4.59 9.32,15.33 12.26,20.15 4.23,6.95 8.59,13 12.79,19.91 15.62,25.66 34.82,53.8 51.13,79.67 4.42,7.02 8.28,13.14 12.78,19.95 12.44,18.83 25.81,41.36 37.99,59.3l25.51 39.92c13.6,22.24 30.27,46.75 44.63,69.44 2.08,3.29 5.02,7.11 6.31,10.52z"/>
 </g>
</svg>
